<svg width="24" height="24" viewBox="0 0 24 24" fill="none" xmlns="http://www.w3.org/2000/svg">
<path fill-rule="evenodd" clip-rule="evenodd" d="M20.52 4.5H18.48V3.5C18.48 3.22 18.26 3 17.98 3C17.7 3 17.48 3.22 17.48 3.5V4.5H12.48V3.5C12.48 3.22 12.26 3 11.98 3C11.7 3 11.48 3.22 11.48 3.5V4.5H6.47998V3.5C6.47998 3.22 6.25998 3 5.97998 3C5.69998 3 5.47998 3.22 5.47998 3.5V4.5H3.45998C2.37998 4.5 1.47998 5.38 1.47998 6.48V20.54C1.47998 21.62 2.35998 22.52 3.45998 22.52H20.52C21.6 22.52 22.48 21.64 22.48 20.54V6.48C22.48 5.4 21.6 4.5 20.52 4.5ZM3.47998 5.5H5.49998V7C5.49998 7.28 5.71998 7.5 5.99998 7.5C6.27998 7.5 6.49998 7.28 6.49998 7V5.5H11.5V7C11.5 7.28 11.72 7.5 12 7.5C12.28 7.5 12.5 7.28 12.5 7V5.5H17.5V7C17.5 7.28 17.72 7.5 18 7.5C18.28 7.5 18.5 7.28 18.5 7V5.5H20.54C21.08 5.5 21.5 5.94 21.5 6.48V9H2.49998V6.48C2.49998 5.94 2.93998 5.5 3.47998 5.5ZM20.54 21.5H3.47998C2.93998 21.5 2.49998 21.06 2.49998 20.52V9.98H21.5V20.52C21.5 21.06 21.06 21.5 20.54 21.5Z" fill="#0046C0"/>
<path fill-rule="evenodd" clip-rule="evenodd" d="M14.8637 13.0362C15.0394 13.212 15.0394 13.4969 14.8637 13.6726L12.5151 16.0212L14.7425 18.2486C14.9182 18.4243 14.9182 18.7093 14.7425 18.885C14.5667 19.0607 14.2818 19.0607 14.1061 18.885L11.8787 16.6576L9.77252 18.7638C9.59678 18.9395 9.31186 18.9395 9.13612 18.7638C8.96038 18.588 8.96038 18.3031 9.13612 18.1274L11.2423 16.0212L9.0149 13.7938C8.83917 13.6181 8.83917 13.3332 9.0149 13.1574C9.19064 12.9817 9.47556 12.9817 9.6513 13.1574L11.8787 15.3848L14.2273 13.0362C14.403 12.8605 14.6879 12.8605 14.8637 13.0362Z" fill="#0046C0"/>
</svg>
