<svg width="24" height="24" viewBox="0 0 24 24" fill="none" xmlns="http://www.w3.org/2000/svg">
<path d="M12.2799 11.34C10.9599 10.94 10.1399 10.64 10.1399 9.68C10.1399 8.72 11.0199 8.24 11.8999 8.24C13.5399 8.24 13.9399 9.46 13.9599 9.52C14.0399 9.78 14.3199 9.94 14.5799 9.86C14.8399 9.78 14.9999 9.5 14.9199 9.24C14.7399 8.62 13.9999 7.52 12.4599 7.28V6.64C12.4599 6.36 12.2399 6.14 11.9599 6.14C11.6799 6.14 11.4599 6.36 11.4599 6.64V7.32C10.1199 7.5 9.11994 8.42 9.11994 9.68C9.11994 11.44 10.6999 11.92 11.9599 12.3C13.3799 12.74 14.2399 13.06 14.2399 14.2C14.2399 14.9 13.4599 15.56 12.4399 15.72C11.9599 15.8 10.3799 15.9 9.73994 13.98C9.65994 13.72 9.37994 13.58 9.09994 13.66C8.83994 13.74 8.69994 14.02 8.77994 14.3C9.29994 15.86 10.3599 16.52 11.4399 16.68V17.34C11.4399 17.62 11.6599 17.84 11.9399 17.84C12.2199 17.84 12.4399 17.62 12.4399 17.34V16.72C12.4399 16.72 12.5399 16.72 12.5799 16.72C14.0799 16.48 15.2199 15.4 15.2199 14.2C15.2199 12.26 13.5599 11.76 12.2199 11.34" fill="#0046C0"/>
<path d="M11.9399 1.5C6.13994 1.5 1.43994 6.2 1.43994 12C1.43994 17.8 6.13994 22.5 11.9399 22.5C17.7399 22.5 22.4399 17.8 22.4399 12C22.4399 6.2 17.7399 1.5 11.9399 1.5ZM11.9399 21.5C6.69994 21.5 2.43994 17.24 2.43994 12C2.43994 6.76 6.69994 2.5 11.9399 2.5C17.1799 2.5 21.4399 6.76 21.4399 12C21.4399 17.24 17.1799 21.5 11.9399 21.5Z" fill="#0046C0"/>
</svg>
