<svg width="40" height="40" viewBox="0 0 40 40" fill="none" xmlns="http://www.w3.org/2000/svg">
<path d="M20 2.66667C29.5556 2.66667 37.3333 10.4444 37.3333 20C37.3333 29.5556 29.5556 37.3333 20 37.3333C10.4444 37.3333 2.66667 29.5556 2.66667 20C2.66667 10.4444 10.4444 2.66667 20 2.66667ZM20 0C9 0 0 9 0 20C0 31 9 40 20 40C31 40 40 31 40 20C40 9 31 0 20 0Z" fill="#2CCC6E"/>
<path d="M18.3333 28.111C18 28.111 17.6667 27.9999 17.4444 27.6666L10.6667 20.8888C10.1111 20.3332 10.1111 19.5555 10.6667 18.9999C11.2222 18.4444 12 18.4444 12.5556 18.9999L18.1111 24.5555L27.2222 10.8888C27.6667 10.2221 28.4444 10.111 29.1111 10.5555C29.7778 10.9999 29.8889 11.7777 29.4444 12.4443L19.4444 27.5555C19.2222 27.8888 18.8889 28.111 18.4444 28.111C18.4444 28.111 18.4444 28.111 18.3333 28.111Z" fill="#2CCC6E"/>
</svg>
