<svg width="24" height="24" viewBox="0 0 24 24" fill="none" xmlns="http://www.w3.org/2000/svg">
<g clip-path="url(#clip0_4722_126221)">
<path d="M23.5 23H20.12C20.48 22.58 20.7 22.04 20.74 21.46C22.56 21.34 24 19.84 24 17.98C24 16.12 22.42 14.48 20.5 14.48H20.32C20.32 14.48 20.18 14.48 20.12 14.48V8.68C21.04 8.46 21.9 7.9 22.44 7.14C23.02 6.3 23.16 5.32 22.8 4.32L21.26 0.94C21 0.36 20.42 0 19.8 0H4.22C3.58 0 3 0.38 2.74 0.94L1.18 4.36C0.84 5.32 0.96 6.3 1.56 7.14C2.08 7.9 2.96 8.44 3.88 8.68V12.34L3 14.54C1.3 14.78 0 16.24 0 17.98C0 19.82 1.44 21.34 3.26 21.46C3.3 22.04 3.54 22.58 3.88 23H0.5C0.22 23 0 23.22 0 23.5C0 23.78 0.22 24 0.5 24H23.5C23.78 24 24 23.78 24 23.5C24 23.22 23.78 23 23.5 23ZM8.74 21.48H15.28C15.34 22.06 15.56 22.58 15.9 23H8.1C8.44 22.58 8.68 22.06 8.72 21.48H8.74ZM16.26 21.24C16.26 20.28 17.04 19.48 18.02 19.48C19 19.48 19.78 20.26 19.78 21.24C19.78 22.22 19 23 18.02 23C17.04 23 16.26 22.22 16.26 21.24ZM5.16 11.84C5.36 11.32 5.86 11 6.42 11H9.84V14.5H4.12L5.18 11.84H5.16ZM12.26 11C12.98 11 13.66 11.26 14.2 11.72L17.22 14.34C17.22 14.34 17.34 14.44 17.42 14.5H10.84V11H12.26ZM17.88 13.58L14.86 10.96C14.14 10.34 13.22 10 12.26 10H6.42C5.84 10 5.32 10.24 4.9 10.6V8.8C6.22 8.76 7.34 8.04 7.98 7C8.7 8.5 10.24 9.56 12.02 9.56C13.8 9.56 15.34 8.5 16.06 6.96C16.7 8.02 17.82 8.76 19.14 8.8V14.3C18.68 14.14 18.26 13.92 17.88 13.6V13.58ZM9.4 1H14.6L15.5 5.04C15.5 6.96 13.92 8.54 12 8.54C10.08 8.54 8.5 6.96 8.48 5.14L9.4 1ZM19.78 1C20.02 1 20.24 1.14 20.34 1.36L21.88 4.7C22.18 5.52 21.9 6.18 21.64 6.56C21.12 7.3 20.18 7.78 19.28 7.78C17.76 7.78 16.52 6.54 16.52 4.92L15.66 1H19.82H19.78ZM2.38 6.56C2.1 6.16 1.84 5.52 2.12 4.74L3.66 1.36C3.76 1.14 3.98 1 4.22 1H8.38L7.5 5.04C7.5 6.56 6.26 7.8 4.74 7.8C3.84 7.8 2.88 7.3 2.38 6.58V6.56ZM1 17.98C1 16.6 2.12 15.5 3.48 15.48H20.32H20.5C21.88 15.48 23 16.6 23 17.98C23 19.36 21.94 20.38 20.64 20.46C20.3 19.32 19.26 18.48 18.02 18.48C16.78 18.48 15.72 19.32 15.38 20.48H8.66C8.32 19.32 7.28 18.48 6.02 18.48C4.76 18.48 3.74 19.32 3.4 20.46C2.08 20.38 1.04 19.32 1.04 17.98H1ZM4.24 21.24C4.24 20.28 5.02 19.48 6 19.48C6.98 19.48 7.76 20.26 7.76 21.24C7.76 22.22 6.98 23 6 23C5.02 23 4.24 22.22 4.24 21.24Z" fill="#1F1F1F"/>
</g>
<defs>
<clipPath id="clip0_4722_126221">
<rect width="24" height="24" fill="white"/>
</clipPath>
</defs>
</svg>
