<svg width="24" height="24" viewBox="0 0 24 24" fill="none" xmlns="http://www.w3.org/2000/svg">
<path d="M23.48 8.99998H20.66C20.6 8.83998 20.54 8.69998 20.52 8.53998L19.74 4.97998C19.56 4.11998 18.78 3.47998 17.88 3.47998H6.1C5.2 3.47998 4.44 4.09998 4.24 4.97998L3.46 8.53998C3.42 8.69998 3.36 8.83998 3.32 8.99998H0.5C0.22 8.99998 0 9.21998 0 9.49998C0 9.77998 0.22 9.99998 0.5 9.99998H2.84L2.06 11.18C1.7 11.74 1.5 12.38 1.5 13.04V17.08C1.5 17.98 2.14 18.7 2.98 18.9V19.74C2.98 20.7 3.76 21.5 4.74 21.5C5.72 21.5 6.5 20.72 6.5 19.74V18.98H17.5V19.74C17.5 20.7 18.28 21.5 19.26 21.5C20.24 21.5 21.02 20.72 21.02 19.74V18.9C21.86 18.7 22.5 17.98 22.5 17.08V13.04C22.5 12.38 22.3 11.74 21.94 11.18L21.16 9.97998H23.5C23.78 9.97998 24 9.75998 24 9.47998C24 9.19998 23.78 8.97998 23.5 8.97998L23.48 8.99998ZM5.22 5.19998C5.32 4.79998 5.68 4.49998 6.1 4.49998H17.86C18.28 4.49998 18.64 4.79998 18.74 5.19998L19.52 8.75998C19.56 8.93998 19.62 9.09998 19.68 9.27998L18.1 10.6C17.82 10.84 17.44 10.98 17.08 10.98H6.88C6.5 10.98 6.14 10.84 5.86 10.6L4.28 9.27998C4.34 9.09998 4.4 8.93998 4.44 8.75998L5.22 5.19998ZM5.48 19.76C5.48 20.18 5.14 20.52 4.72 20.52C4.3 20.52 3.96 20.18 3.96 19.76V19H5.46V19.76H5.48ZM19.98 19.76C19.98 20.18 19.64 20.52 19.22 20.52C18.8 20.52 18.46 20.18 18.46 19.76V19H19.96V19.76H19.98ZM21.46 17.1C21.46 17.6 21.04 18.02 20.54 18.02H3.42C2.92 18.02 2.5 17.6 2.5 17.1V13.06C2.5 12.6 2.64 12.14 2.9 11.76L3.72 10.52C3.72 10.52 3.82 10.34 3.86 10.24L5.2 11.38C5.66 11.78 6.26 12 6.88 12H17.1C17.72 12 18.3 11.78 18.78 11.38L20.12 10.24C20.12 10.24 20.2 10.42 20.26 10.52L21.08 11.76C21.34 12.16 21.48 12.6 21.48 13.06V17.1H21.46ZM6.72 14.76C6.72 15.18 6.38 15.52 5.96 15.52C5.54 15.52 5.2 15.18 5.2 14.76C5.2 14.34 5.54 14 5.96 14C6.38 14 6.72 14.34 6.72 14.76ZM18.72 14.76C18.72 15.18 18.38 15.52 17.96 15.52C17.54 15.52 17.2 15.18 17.2 14.76C17.2 14.34 17.54 14 17.96 14C18.38 14 18.72 14.34 18.72 14.76Z" fill="#1F1F1F"/>
</svg>
