<svg width="24" height="24" viewBox="0 0 24 24" fill="none" xmlns="http://www.w3.org/2000/svg">
<path d="M20.52 4.5H18.48V3.5C18.48 3.22 18.26 3 17.98 3C17.7 3 17.48 3.22 17.48 3.5V4.5H12.48V3.5C12.48 3.22 12.26 3 11.98 3C11.7 3 11.48 3.22 11.48 3.5V4.5H6.47998V3.5C6.47998 3.22 6.25998 3 5.97998 3C5.69998 3 5.47998 3.22 5.47998 3.5V4.5H3.45998C2.37998 4.5 1.47998 5.38 1.47998 6.48V20.54C1.47998 21.62 2.35998 22.52 3.45998 22.52H20.52C21.6 22.52 22.48 21.64 22.48 20.54V6.48C22.48 5.4 21.6 4.5 20.52 4.5ZM3.47998 5.5H5.49998V7C5.49998 7.28 5.71998 7.5 5.99998 7.5C6.27998 7.5 6.49998 7.28 6.49998 7V5.5H11.5V7C11.5 7.28 11.72 7.5 12 7.5C12.28 7.5 12.5 7.28 12.5 7V5.5H17.5V7C17.5 7.28 17.72 7.5 18 7.5C18.28 7.5 18.5 7.28 18.5 7V5.5H20.54C21.08 5.5 21.5 5.94 21.5 6.48V9H2.49998V6.48C2.49998 5.94 2.93998 5.5 3.47998 5.5ZM20.54 21.5H3.47998C2.93998 21.5 2.49998 21.06 2.49998 20.52V9.98H21.5V20.52C21.5 21.06 21.06 21.5 20.54 21.5Z" fill="#1F1F1F"/>
<path d="M5.97998 12.76C5.55998 12.76 5.21998 13.1 5.21998 13.52C5.21998 13.94 5.55998 14.28 5.97998 14.28C6.39998 14.28 6.73998 13.94 6.73998 13.52C6.73998 13.1 6.39998 12.76 5.97998 12.76Z" fill="#1F1F1F"/>
<path d="M12 12.76C11.58 12.76 11.24 13.1 11.24 13.52C11.24 13.94 11.58 14.28 12 14.28C12.42 14.28 12.76 13.94 12.76 13.52C12.76 13.1 12.42 12.76 12 12.76Z" fill="#1F1F1F"/>
<path d="M18 12.76C17.58 12.76 17.24 13.1 17.24 13.52C17.24 13.94 17.58 14.28 18 14.28C18.42 14.28 18.76 13.94 18.76 13.52C18.76 13.1 18.42 12.76 18 12.76Z" fill="#1F1F1F"/>
<path d="M5.97998 17.24C5.55998 17.24 5.21998 17.58 5.21998 18C5.21998 18.42 5.55998 18.76 5.97998 18.76C6.39998 18.76 6.73998 18.42 6.73998 18C6.73998 17.58 6.39998 17.24 5.97998 17.24Z" fill="#1F1F1F"/>
<path d="M12 17.24C11.58 17.24 11.24 17.58 11.24 18C11.24 18.42 11.58 18.76 12 18.76C12.42 18.76 12.76 18.42 12.76 18C12.76 17.58 12.42 17.24 12 17.24Z" fill="#1F1F1F"/>
<path d="M18 17.24C17.58 17.24 17.24 17.58 17.24 18C17.24 18.42 17.58 18.76 18 18.76C18.42 18.76 18.76 18.42 18.76 18C18.76 17.58 18.42 17.24 18 17.24Z" fill="#1F1F1F"/>
</svg>
