<svg width="24" height="24" viewBox="0 0 24 24" fill="none" xmlns="http://www.w3.org/2000/svg">
<path d="M18.9599 0H9.79992C9.13992 0 8.49992 0.28 8.01992 0.74L3.63992 5.18C3.17992 5.64 2.91992 6.26 2.91992 6.92V22.02C2.91992 23.1 3.79992 23.98 4.87992 23.98H18.9399C20.0199 23.98 20.8999 23.1 20.8999 22.02V1.96C20.9199 0.88 20.0399 0 18.9599 0ZM8.71992 1.44C8.91992 1.24 9.17992 1.12 9.45992 1.06V5.5C9.45992 6.04 9.01992 6.5 8.45992 6.5H4.01992C4.09992 6.28 4.19992 6.06 4.35992 5.88L8.71992 1.44ZM19.9399 22.02C19.9399 22.56 19.4999 22.98 18.9799 22.98H4.89992C4.35992 22.98 3.93992 22.54 3.93992 22.02V7.5H8.45992C9.55992 7.5 10.4599 6.6 10.4599 5.5V1H18.9599C19.4999 1 19.9199 1.44 19.9199 1.96V22.02H19.9399Z" fill="#1F1F1F"/>
<path d="M15.9999 10.5H7.85992C7.57992 10.5 7.35992 10.72 7.35992 11C7.35992 11.28 7.57992 11.5 7.85992 11.5H15.9999C16.2799 11.5 16.4999 11.28 16.4999 11C16.4999 10.72 16.2799 10.5 15.9999 10.5Z" fill="#1F1F1F"/>
<path d="M15.9999 14.5H7.85992C7.57992 14.5 7.35992 14.72 7.35992 15C7.35992 15.28 7.57992 15.5 7.85992 15.5H15.9999C16.2799 15.5 16.4999 15.28 16.4999 15C16.4999 14.72 16.2799 14.5 15.9999 14.5Z" fill="#1F1F1F"/>
<path d="M15.9999 18.48H7.85992C7.57992 18.48 7.35992 18.7 7.35992 18.98C7.35992 19.26 7.57992 19.48 7.85992 19.48H15.9999C16.2799 19.48 16.4999 19.26 16.4999 18.98C16.4999 18.7 16.2799 18.48 15.9999 18.48Z" fill="#1F1F1F"/>
</svg>
