<svg width="36" height="36" viewBox="0 0 36 36" fill="none" xmlns="http://www.w3.org/2000/svg">
<path d="M23.25 3C17.4531 3 12.7534 7.69759 12.75 13.4937C12.7928 15.9467 12.4478 17.8487 10.9549 19.3437L2.03069 28.28C1.738 28.5731 1.26312 28.5734 0.97003 28.2807C0.676938 27.988 0.676616 27.5131 0.96931 27.22L9.8935 18.2837C10.9489 17.2268 11.2915 15.8442 11.2501 13.5133C11.25 13.5079 11.25 13.5024 11.25 13.497C11.2516 6.87095 16.6236 1.5 23.25 1.5C24.9904 1.5 26.6462 1.87099 28.141 2.53892C28.3664 2.63962 28.5277 2.84476 28.5726 3.08749C28.6174 3.33022 28.5399 3.57946 28.3654 3.754L24.1377 7.98166C22.7239 9.39544 22.7239 11.6876 24.1377 13.1014C25.5515 14.5152 27.8437 14.5152 29.2575 13.1014L33.279 9.07982C33.4599 8.89897 33.7204 8.82275 33.9702 8.8776C34.22 8.93246 34.4247 9.11084 34.5131 9.35082C34.99 10.6448 35.25 12.0429 35.25 13.5C35.25 20.1274 29.8774 25.5 23.25 25.5C21.9445 25.5 21.3258 25.6321 20.7412 25.9552C20.1965 26.2562 19.664 26.7254 18.7428 27.5371C18.5543 27.7032 18.3485 27.8846 18.1239 28.0809L10.9937 34.3146C10.6818 34.5873 10.208 34.5555 9.93537 34.2436C9.66274 33.9318 9.69453 33.458 10.0064 33.1854L17.1366 26.9516C17.3391 26.7746 17.5304 26.6057 17.7125 26.4448C18.6302 25.6343 19.3147 25.0297 20.0156 24.6424C20.9273 24.1386 21.8461 24 23.25 24C29.049 24 33.75 19.299 33.75 13.5C33.75 12.6463 33.6483 11.8172 33.4565 11.0237L30.3181 14.1621C28.3185 16.1616 25.0766 16.1616 23.077 14.1621C21.0775 12.1625 21.0775 8.92057 23.077 6.921L26.4891 3.50891C25.4696 3.17862 24.3812 3 23.25 3Z" fill="#0046C0"/>
</svg>
